<?xml version="1.0" encoding="UTF-8"?><svg xmlns="http://www.w3.org/2000/svg" xmlns:xlink="http://www.w3.org/1999/xlink" width="300pt" zoomAndPan="magnify" viewBox="0 0 300 74.999997" height="74.999997pt" preserveAspectRatio="xMidYMid meet" version="1.2"><defs><g/><clipPath xml:id="clip1" id="clip1"><path d="M 13.445312 9.375 L 62.945312 9.375 L 62.945312 46 L 13.445312 46 Z M 13.445312 9.375 "/></clipPath><clipPath xml:id="clip2" id="clip2"><path d="M 49 42 L 62.945312 42 L 62.945312 54 L 49 54 Z M 49 42 "/></clipPath><clipPath xml:id="clip3" id="clip3"><path d="M 13.445312 35 L 40 35 L 40 59 L 13.445312 59 Z M 13.445312 35 "/></clipPath><clipPath xml:id="clip4" id="clip4"><path d="M 37 36 L 62 36 L 62 60.375 L 37 60.375 Z M 37 36 "/></clipPath></defs><g xml:id="surface1" id="surface1"><path style="fill:none;stroke-width:1;stroke-linecap:round;stroke-linejoin:miter;stroke:rgb(100%,100%,100%);stroke-opacity:1;stroke-miterlimit:4;" d="M 0.500387 -0.000305296 L 51.010478 -0.000305296 " transform="matrix(3.756598,0,0,3.75,84.003062,58.653489)"/><path style="fill:none;stroke-width:1;stroke-linecap:round;stroke-linejoin:miter;stroke:rgb(100%,100%,100%);stroke-opacity:1;stroke-miterlimit:4;" d="M 0.500387 0.000000470833 L 51.010478 0.000000470833 " transform="matrix(3.756598,0,0,3.75,84.003062,9.374998)"/><g style="fill:rgb(100%,100%,100%);fill-opacity:1;"><g transform="translate(78.179033, 44.505878)"><path style="stroke:none;" d="M 10.816406 -5.546875 C 10.816406 -4.292969 9.757812 -3.261719 8.503906 -3.261719 L 5.855469 -3.261719 L 5.855469 -7.832031 L 8.503906 -7.832031 C 9.757812 -7.832031 10.816406 -6.773438 10.816406 -5.546875 Z M 9.507812 -13.464844 C 9.507812 -12.265625 8.503906 -11.261719 7.304688 -11.261719 L 5.855469 -11.261719 L 5.855469 -15.667969 L 7.304688 -15.667969 C 8.503906 -15.667969 9.507812 -14.691406 9.507812 -13.464844 Z M 15.082031 -5.4375 C 15.082031 -8 13.351562 -9.703125 11.234375 -10.203125 C 12.65625 -10.84375 13.492188 -12.292969 13.492188 -14.21875 C 13.492188 -16.808594 11.429688 -18.957031 8.195312 -18.957031 L 1.671875 -18.957031 L 1.671875 0 L 9.339844 0 C 12.964844 0 15.082031 -2.175781 15.082031 -5.4375 Z M 15.082031 -5.4375 "/></g></g><g style="fill:rgb(100%,100%,100%);fill-opacity:1;"><g transform="translate(99.109434, 44.505878)"><path style="stroke:none;" d="M 16.308594 -9.507812 C 16.308594 -6.578125 13.660156 -3.902344 10.734375 -3.902344 C 7.804688 -3.902344 5.15625 -6.578125 5.15625 -9.507812 C 5.15625 -12.433594 7.804688 -15.082031 10.734375 -15.082031 C 13.660156 -15.082031 16.308594 -12.433594 16.308594 -9.507812 Z M 20.488281 -9.476562 C 20.488281 -14.71875 15.972656 -19.234375 10.734375 -19.234375 C 5.492188 -19.234375 0.976562 -14.71875 0.976562 -9.476562 C 0.976562 -4.238281 5.492188 0.277344 10.734375 0.277344 C 15.972656 0.277344 20.488281 -4.238281 20.488281 -9.476562 Z M 20.488281 -9.476562 "/></g></g><g style="fill:rgb(100%,100%,100%);fill-opacity:1;"><g transform="translate(126.142763, 44.505878)"><path style="stroke:none;" d="M 16.308594 -9.507812 C 16.308594 -6.578125 13.660156 -3.902344 10.734375 -3.902344 C 7.804688 -3.902344 5.15625 -6.578125 5.15625 -9.507812 C 5.15625 -12.433594 7.804688 -15.082031 10.734375 -15.082031 C 13.660156 -15.082031 16.308594 -12.433594 16.308594 -9.507812 Z M 20.488281 -9.476562 C 20.488281 -14.71875 15.972656 -19.234375 10.734375 -19.234375 C 5.492188 -19.234375 0.976562 -14.71875 0.976562 -9.476562 C 0.976562 -4.238281 5.492188 0.277344 10.734375 0.277344 C 15.972656 0.277344 20.488281 -4.238281 20.488281 -9.476562 Z M 20.488281 -9.476562 "/></g></g><g style="fill:rgb(100%,100%,100%);fill-opacity:1;"><g transform="translate(153.176091, 44.505878)"><path style="stroke:none;" d="M 5.855469 -8.476562 L 11.847656 0 L 17.480469 0 L 9.925781 -9.476562 L 17.199219 -18.957031 L 11.847656 -18.957031 L 5.855469 -10.480469 L 5.855469 -18.957031 L 1.671875 -18.957031 L 1.671875 0 L 5.855469 0 Z M 5.855469 -8.476562 "/></g></g><g style="fill:rgb(100%,100%,100%);fill-opacity:1;"><g transform="translate(175.94573, 44.505878)"><path style="stroke:none;" d="M 9.03125 -2.953125 C 6.96875 -2.953125 5.183594 -3.988281 5.074219 -6.246094 L 0.835938 -6.246094 C 0.863281 -1.617188 4.683594 0.445312 8.863281 0.445312 C 12.738281 0.445312 16.726562 -1.199219 16.726562 -5.660156 C 16.726562 -12.878906 5.769531 -10.453125 5.769531 -13.828125 C 5.769531 -15.25 7.414062 -15.804688 8.585938 -15.804688 C 10.675781 -15.804688 11.820312 -15.164062 12.042969 -13.1875 L 16.085938 -13.1875 C 15.945312 -17.507812 12.433594 -19.234375 8.53125 -19.234375 C 5.074219 -19.234375 1.449219 -17.394531 1.449219 -13.492188 C 1.449219 -6.496094 12.40625 -8.863281 12.40625 -5.183594 C 12.40625 -3.484375 10.34375 -2.953125 9.03125 -2.953125 Z M 9.03125 -2.953125 "/></g></g><g style="fill:rgb(100%,100%,100%);fill-opacity:1;"><g transform="translate(199.077636, 44.505878)"><path style="stroke:none;" d="M 9.730469 -15.164062 L 15.136719 -15.164062 L 15.136719 -18.957031 L 0.140625 -18.957031 L 0.140625 -15.164062 L 5.546875 -15.164062 L 5.546875 0 L 9.730469 0 Z M 9.730469 -15.164062 "/></g></g><g style="fill:rgb(100%,100%,100%);fill-opacity:1;"><g transform="translate(219.924444, 44.505878)"><path style="stroke:none;" d="M 16.308594 -9.507812 C 16.308594 -6.578125 13.660156 -3.902344 10.734375 -3.902344 C 7.804688 -3.902344 5.15625 -6.578125 5.15625 -9.507812 C 5.15625 -12.433594 7.804688 -15.082031 10.734375 -15.082031 C 13.660156 -15.082031 16.308594 -12.433594 16.308594 -9.507812 Z M 20.488281 -9.476562 C 20.488281 -14.71875 15.972656 -19.234375 10.734375 -19.234375 C 5.492188 -19.234375 0.976562 -14.71875 0.976562 -9.476562 C 0.976562 -4.238281 5.492188 0.277344 10.734375 0.277344 C 15.972656 0.277344 20.488281 -4.238281 20.488281 -9.476562 Z M 20.488281 -9.476562 "/></g></g><g style="fill:rgb(100%,100%,100%);fill-opacity:1;"><g transform="translate(246.957767, 44.505878)"><path style="stroke:none;" d="M 5.855469 -6.773438 L 5.882812 -6.773438 L 10.398438 0 L 15.695312 0 L 10.257812 -6.96875 C 12.65625 -7.554688 14.578125 -9.671875 14.578125 -12.878906 C 14.578125 -16.476562 11.847656 -18.957031 8.78125 -18.957031 L 1.671875 -18.957031 L 1.671875 0 L 5.855469 0 Z M 8.085938 -15.667969 C 9.3125 -15.667969 10.59375 -14.609375 10.59375 -12.878906 C 10.59375 -11.066406 9.3125 -10.0625 8.085938 -10.0625 L 5.855469 -10.0625 L 5.855469 -15.667969 Z M 8.085938 -15.667969 "/></g></g><g style="fill:rgb(100%,100%,100%);fill-opacity:1;"><g transform="translate(267.888163, 44.505878)"><path style="stroke:none;" d="M 12.65625 -3.792969 L 5.855469 -3.792969 L 5.855469 -7.609375 L 12.378906 -7.609375 L 12.378906 -11.402344 L 5.855469 -11.402344 L 5.855469 -15.164062 L 12.65625 -15.164062 L 12.65625 -18.957031 L 1.671875 -18.957031 L 1.671875 0 L 12.65625 0 Z M 12.65625 -3.792969 "/></g></g><g clip-rule="nonzero" clip-path="url(#clip1)"><path style=" stroke:none;fill-rule:nonzero;fill:rgb(99.609375%,96.859741%,100%);fill-opacity:1;" d="M 14.839844 27.722656 C 14.832031 27.753906 14.824219 27.789062 14.8125 27.824219 C 14.824219 27.789062 14.832031 27.753906 14.839844 27.722656 Z M 14.84375 27.679688 C 14.84375 27.742188 14.851562 27.953125 14.925781 28.238281 C 15.082031 28.8125 15.472656 29.332031 16.011719 29.660156 L 37.105469 42.515625 C 37.070312 42.308594 37.054688 42.09375 37.054688 41.875 C 37.054688 39.804688 37.949219 38.378906 40.050781 37.09375 L 60.128906 24.851562 C 60.394531 24.691406 60.421875 24.421875 60.421875 24.316406 C 60.421875 24.207031 60.394531 23.941406 60.128906 23.777344 L 38.800781 10.769531 L 17.25 23.914062 C 15.5 24.980469 14.847656 25.984375 14.847656 27.613281 C 14.847656 27.632812 14.847656 27.65625 14.84375 27.679688 Z M 39.816406 45.21875 C 39.375 45.21875 38.945312 45.101562 38.554688 44.859375 C 38.472656 44.808594 38.394531 44.757812 38.324219 44.699219 L 15.421875 30.742188 C 14.605469 30.246094 14.027344 29.472656 13.789062 28.570312 C 13.667969 28.121094 13.644531 27.816406 13.664062 27.605469 C 13.667969 25.539062 14.5625 24.113281 16.660156 22.832031 L 38.503906 9.507812 C 38.6875 9.398438 38.914062 9.398438 39.097656 9.507812 L 60.71875 22.695312 C 61.273438 23.035156 61.605469 23.640625 61.605469 24.316406 C 61.605469 24.988281 61.273438 25.597656 60.71875 25.933594 L 40.640625 38.179688 C 38.890625 39.246094 38.238281 40.25 38.238281 41.875 C 38.238281 42.613281 38.527344 43.296875 38.988281 43.667969 C 39 43.675781 39.011719 43.683594 39.019531 43.691406 C 39.058594 43.722656 39.101562 43.75 39.144531 43.777344 C 39.613281 44.0625 40.171875 44.027344 40.753906 43.671875 L 61.0625 31.285156 L 59.414062 30.152344 C 59.140625 29.964844 59.0625 29.578125 59.238281 29.289062 C 59.417969 29 59.785156 28.917969 60.058594 29.105469 L 62.515625 30.796875 C 62.6875 30.914062 62.789062 31.117188 62.78125 31.335938 C 62.777344 31.554688 62.664062 31.753906 62.484375 31.859375 L 41.347656 44.753906 C 40.835938 45.0625 40.316406 45.21875 39.816406 45.21875 "/></g><g clip-rule="nonzero" clip-path="url(#clip2)"><path style=" stroke:none;fill-rule:nonzero;fill:rgb(99.609375%,96.859741%,100%);fill-opacity:1;" d="M 49.699219 53.085938 C 49.496094 53.085938 49.296875 52.976562 49.1875 52.773438 C 49.023438 52.476562 49.121094 52.09375 49.402344 51.921875 L 61.0625 44.8125 L 59.414062 43.675781 C 59.140625 43.488281 59.0625 43.101562 59.238281 42.8125 C 59.417969 42.523438 59.785156 42.441406 60.058594 42.628906 L 62.515625 44.320312 C 62.6875 44.441406 62.789062 44.644531 62.78125 44.863281 C 62.777344 45.078125 62.664062 45.273438 62.484375 45.386719 L 49.996094 53.003906 C 49.902344 53.0625 49.800781 53.085938 49.699219 53.085938 "/></g><g clip-rule="nonzero" clip-path="url(#clip3)"><path style=" stroke:none;fill-rule:nonzero;fill:rgb(99.609375%,96.859741%,100%);fill-opacity:1;" d="M 14.839844 41.246094 C 14.832031 41.28125 14.824219 41.316406 14.8125 41.347656 C 14.824219 41.316406 14.832031 41.28125 14.839844 41.246094 Z M 38.652344 58.328125 C 38.550781 58.328125 38.449219 58.300781 38.355469 58.246094 L 15.421875 44.265625 C 14.605469 43.769531 14.027344 43 13.789062 42.09375 C 13.667969 41.644531 13.644531 41.339844 13.664062 41.132812 C 13.667969 39.066406 14.558594 37.640625 16.644531 36.367188 L 17.640625 35.683594 C 17.914062 35.496094 18.28125 35.578125 18.460938 35.867188 C 18.636719 36.15625 18.558594 36.542969 18.285156 36.730469 L 17.277344 37.421875 C 17.269531 37.429688 17.261719 37.433594 17.25 37.4375 C 15.5 38.507812 14.847656 39.511719 14.847656 41.136719 C 14.847656 41.160156 14.847656 41.179688 14.84375 41.207031 C 14.84375 41.265625 14.851562 41.476562 14.925781 41.761719 C 15.082031 42.335938 15.472656 42.855469 16.011719 43.183594 L 38.945312 57.164062 C 39.230469 57.335938 39.328125 57.71875 39.160156 58.015625 C 39.054688 58.21875 38.855469 58.328125 38.652344 58.328125 "/></g><g clip-rule="nonzero" clip-path="url(#clip4)"><path style=" stroke:none;fill-rule:nonzero;fill:rgb(99.609375%,96.859741%,100%);fill-opacity:1;" d="M 45.660156 60.375 C 45.5625 60.375 45.460938 60.347656 45.371094 60.292969 C 45.183594 60.183594 45.070312 59.976562 45.070312 59.75 L 45.070312 56.035156 L 41.34375 58.28125 C 40.390625 58.859375 39.398438 58.898438 38.554688 58.382812 C 37.628906 57.820312 37.054688 56.675781 37.054688 55.402344 C 37.054688 53.328125 37.949219 51.902344 40.050781 50.621094 L 60.128906 38.375 C 60.394531 38.214844 60.421875 37.949219 60.421875 37.839844 C 60.421875 37.730469 60.394531 37.464844 60.128906 37.300781 C 59.847656 37.128906 59.75 36.746094 59.910156 36.449219 C 60.074219 36.148438 60.4375 36.046875 60.71875 36.21875 C 61.273438 36.558594 61.605469 37.164062 61.605469 37.839844 C 61.605469 38.515625 61.273438 39.121094 60.71875 39.457031 L 40.640625 51.703125 C 38.890625 52.769531 38.238281 53.773438 38.238281 55.402344 C 38.238281 56.21875 38.59375 56.964844 39.144531 57.300781 C 39.613281 57.589844 40.171875 57.554688 40.753906 57.195312 L 45.367188 54.417969 C 45.550781 54.308594 45.777344 54.308594 45.957031 54.421875 C 46.140625 54.53125 46.253906 54.738281 46.253906 54.960938 L 46.253906 58.648438 L 49.105469 56.84375 L 49.105469 52.460938 C 49.105469 51.597656 48.664062 50.789062 47.953125 50.359375 C 47.667969 50.1875 47.570312 49.808594 47.730469 49.507812 C 47.890625 49.207031 48.253906 49.105469 48.535156 49.277344 C 49.617188 49.925781 50.289062 51.148438 50.289062 52.460938 L 50.289062 57.195312 C 50.289062 57.417969 50.179688 57.621094 50.003906 57.730469 L 45.964844 60.285156 C 45.871094 60.34375 45.765625 60.375 45.660156 60.375 "/></g><path style=" stroke:none;fill-rule:nonzero;fill:rgb(99.609375%,96.859741%,100%);fill-opacity:1;" d="M 35.109375 34.636719 C 35.011719 34.636719 34.914062 34.609375 34.820312 34.554688 L 16.667969 23.917969 C 16.382812 23.75 16.28125 23.371094 16.4375 23.070312 C 16.597656 22.769531 16.957031 22.660156 17.242188 22.824219 L 35.394531 33.464844 C 35.679688 33.628906 35.785156 34.011719 35.625 34.3125 C 35.519531 34.519531 35.316406 34.636719 35.109375 34.636719 "/><path style=" stroke:none;fill-rule:nonzero;fill:rgb(96.859741%,100%,97.24884%);fill-opacity:1;" d="M 27.507812 19.824219 L 50.097656 19.824219 L 38.800781 12.933594 Z M 27.507812 19.824219 "/></g></svg>