<?xml version="1.0" encoding="UTF-8"?><svg xmlns="http://www.w3.org/2000/svg" xmlns:xlink="http://www.w3.org/1999/xlink" width="675pt" zoomAndPan="magnify" viewBox="0 0 675 374.999991" height="374.999991pt" preserveAspectRatio="xMidYMid meet" version="1.2"><defs><g/><clipPath xml:id="clip1" id="clip1"><path d="M 160.351562 120.839844 L 236.851562 120.839844 L 236.851562 177 L 160.351562 177 Z M 160.351562 120.839844 "/></clipPath><clipPath xml:id="clip2" id="clip2"><path d="M 215 172 L 236.851562 172 L 236.851562 189 L 215 189 Z M 215 172 "/></clipPath><clipPath xml:id="clip3" id="clip3"><path d="M 160.351562 161 L 201 161 L 201 197 L 160.351562 197 Z M 160.351562 161 "/></clipPath><clipPath xml:id="clip4" id="clip4"><path d="M 196 162 L 235 162 L 235 199.589844 L 196 199.589844 Z M 196 162 "/></clipPath></defs><g xml:id="surface1" id="surface1"><path style="fill:none;stroke-width:1;stroke-linecap:round;stroke-linejoin:miter;stroke:rgb(0%,0%,0%);stroke-opacity:1;stroke-miterlimit:4;" d="M 0.500189 0.000291757 L 139.81114 0.000291757 " transform="matrix(2.250418,0,0,2.25,270.097022,199.557937)"/><path style="fill:none;stroke-width:1;stroke-linecap:round;stroke-linejoin:miter;stroke:rgb(0%,0%,0%);stroke-opacity:1;stroke-miterlimit:4;" d="M 0.500316 0.000552749 L 139.814703 0.000552749 " transform="matrix(2.250334,0,0,2.25,270.088966,120.8386)"/><g style="fill:rgb(0%,0%,0%);fill-opacity:1;"><g transform="translate(269.564871, 176.527578)"><path style="stroke:none;" d="M 16.660156 -8.542969 C 16.660156 -6.613281 15.027344 -5.023438 13.09375 -5.023438 L 9.015625 -5.023438 L 9.015625 -12.066406 L 13.09375 -12.066406 C 15.027344 -12.066406 16.660156 -10.433594 16.660156 -8.542969 Z M 14.640625 -20.738281 C 14.640625 -18.890625 13.09375 -17.347656 11.25 -17.347656 L 9.015625 -17.347656 L 9.015625 -24.128906 L 11.25 -24.128906 C 13.09375 -24.128906 14.640625 -22.628906 14.640625 -20.738281 Z M 23.226562 -8.371094 C 23.226562 -12.324219 20.566406 -14.941406 17.304688 -15.714844 C 19.492188 -16.703125 20.78125 -18.933594 20.78125 -21.898438 C 20.78125 -25.890625 17.605469 -29.195312 12.625 -29.195312 L 2.574219 -29.195312 L 2.574219 0 L 14.382812 0 C 19.964844 0 23.226562 -3.347656 23.226562 -8.371094 Z M 23.226562 -8.371094 "/></g></g><g style="fill:rgb(0%,0%,0%);fill-opacity:1;"><g transform="translate(301.809434, 176.527578)"><path style="stroke:none;" d="M 25.117188 -14.640625 C 25.117188 -10.132812 21.039062 -6.011719 16.53125 -6.011719 C 12.023438 -6.011719 7.941406 -10.132812 7.941406 -14.640625 C 7.941406 -19.148438 12.023438 -23.226562 16.53125 -23.226562 C 21.039062 -23.226562 25.117188 -19.148438 25.117188 -14.640625 Z M 31.558594 -14.597656 C 31.558594 -22.671875 24.601562 -29.625 16.53125 -29.625 C 8.457031 -29.625 1.503906 -22.671875 1.503906 -14.597656 C 1.503906 -6.527344 8.457031 0.429688 16.53125 0.429688 C 24.601562 0.429688 31.558594 -6.527344 31.558594 -14.597656 Z M 31.558594 -14.597656 "/></g></g><g style="fill:rgb(0%,0%,0%);fill-opacity:1;"><g transform="translate(343.456869, 176.527578)"><path style="stroke:none;" d="M 25.117188 -14.640625 C 25.117188 -10.132812 21.039062 -6.011719 16.53125 -6.011719 C 12.023438 -6.011719 7.941406 -10.132812 7.941406 -14.640625 C 7.941406 -19.148438 12.023438 -23.226562 16.53125 -23.226562 C 21.039062 -23.226562 25.117188 -19.148438 25.117188 -14.640625 Z M 31.558594 -14.597656 C 31.558594 -22.671875 24.601562 -29.625 16.53125 -29.625 C 8.457031 -29.625 1.503906 -22.671875 1.503906 -14.597656 C 1.503906 -6.527344 8.457031 0.429688 16.53125 0.429688 C 24.601562 0.429688 31.558594 -6.527344 31.558594 -14.597656 Z M 31.558594 -14.597656 "/></g></g><g style="fill:rgb(0%,0%,0%);fill-opacity:1;"><g transform="translate(385.104304, 176.527578)"><path style="stroke:none;" d="M 9.015625 -13.050781 L 18.246094 0 L 26.921875 0 L 15.285156 -14.597656 L 26.492188 -29.195312 L 18.246094 -29.195312 L 9.015625 -16.144531 L 9.015625 -29.195312 L 2.574219 -29.195312 L 2.574219 0 L 9.015625 0 Z M 9.015625 -13.050781 "/></g></g><g style="fill:rgb(0%,0%,0%);fill-opacity:1;"><g transform="translate(420.182614, 176.527578)"><path style="stroke:none;" d="M 13.910156 -4.550781 C 10.734375 -4.550781 7.984375 -6.140625 7.8125 -9.617188 L 1.289062 -9.617188 C 1.332031 -2.492188 7.214844 0.6875 13.652344 0.6875 C 19.621094 0.6875 25.761719 -1.847656 25.761719 -8.714844 C 25.761719 -19.835938 8.886719 -16.101562 8.886719 -21.296875 C 8.886719 -23.484375 11.421875 -24.34375 13.222656 -24.34375 C 16.445312 -24.34375 18.203125 -23.355469 18.546875 -20.308594 L 24.773438 -20.308594 C 24.558594 -26.964844 19.148438 -29.625 13.136719 -29.625 C 7.8125 -29.625 2.234375 -26.792969 2.234375 -20.78125 C 2.234375 -10.003906 19.105469 -13.652344 19.105469 -7.984375 C 19.105469 -5.367188 15.929688 -4.550781 13.910156 -4.550781 Z M 13.910156 -4.550781 "/></g></g><g style="fill:rgb(0%,0%,0%);fill-opacity:1;"><g transform="translate(455.819085, 176.527578)"><path style="stroke:none;" d="M 14.984375 -23.355469 L 23.3125 -23.355469 L 23.3125 -29.195312 L 0.214844 -29.195312 L 0.214844 -23.355469 L 8.542969 -23.355469 L 8.542969 0 L 14.984375 0 Z M 14.984375 -23.355469 "/></g></g><g style="fill:rgb(0%,0%,0%);fill-opacity:1;"><g transform="translate(487.934839, 176.527578)"><path style="stroke:none;" d="M 25.117188 -14.640625 C 25.117188 -10.132812 21.039062 -6.011719 16.53125 -6.011719 C 12.023438 -6.011719 7.941406 -10.132812 7.941406 -14.640625 C 7.941406 -19.148438 12.023438 -23.226562 16.53125 -23.226562 C 21.039062 -23.226562 25.117188 -19.148438 25.117188 -14.640625 Z M 31.558594 -14.597656 C 31.558594 -22.671875 24.601562 -29.625 16.53125 -29.625 C 8.457031 -29.625 1.503906 -22.671875 1.503906 -14.597656 C 1.503906 -6.527344 8.457031 0.429688 16.53125 0.429688 C 24.601562 0.429688 31.558594 -6.527344 31.558594 -14.597656 Z M 31.558594 -14.597656 "/></g></g><g style="fill:rgb(0%,0%,0%);fill-opacity:1;"><g transform="translate(529.582259, 176.527578)"><path style="stroke:none;" d="M 9.015625 -10.433594 L 9.058594 -10.433594 L 16.015625 0 L 24.171875 0 L 15.800781 -10.734375 C 19.492188 -11.636719 22.457031 -14.898438 22.457031 -19.835938 C 22.457031 -25.375 18.246094 -29.195312 13.523438 -29.195312 L 2.574219 -29.195312 L 2.574219 0 L 9.015625 0 Z M 12.453125 -24.128906 C 14.339844 -24.128906 16.316406 -22.5 16.316406 -19.835938 C 16.316406 -17.046875 14.339844 -15.5 12.453125 -15.5 L 9.015625 -15.5 L 9.015625 -24.128906 Z M 12.453125 -24.128906 "/></g></g><g style="fill:rgb(0%,0%,0%);fill-opacity:1;"><g transform="translate(561.82683, 176.527578)"><path style="stroke:none;" d="M 19.492188 -5.839844 L 9.015625 -5.839844 L 9.015625 -11.722656 L 19.0625 -11.722656 L 19.0625 -17.5625 L 9.015625 -17.5625 L 9.015625 -23.355469 L 19.492188 -23.355469 L 19.492188 -29.195312 L 2.574219 -29.195312 L 2.574219 0 L 19.492188 0 Z M 19.492188 -5.839844 "/></g></g><g clip-rule="nonzero" clip-path="url(#clip1)"><path style=" stroke:none;fill-rule:nonzero;fill:rgb(18.818665%,27.059937%,26.269531%);fill-opacity:1;" d="M 162.507812 149.167969 C 162.5 149.21875 162.488281 149.273438 162.46875 149.324219 C 162.488281 149.273438 162.5 149.21875 162.507812 149.167969 Z M 162.519531 149.105469 C 162.519531 149.199219 162.53125 149.523438 162.644531 149.964844 C 162.882812 150.851562 163.488281 151.65625 164.324219 152.160156 L 196.914062 172.015625 C 196.863281 171.691406 196.839844 171.363281 196.839844 171.023438 C 196.839844 167.828125 198.222656 165.621094 201.464844 163.640625 L 232.492188 144.738281 C 232.902344 144.488281 232.945312 144.074219 232.945312 143.90625 C 232.945312 143.742188 232.902344 143.328125 232.492188 143.078125 L 199.535156 122.996094 L 166.234375 143.289062 C 163.53125 144.9375 162.523438 146.484375 162.523438 149 C 162.523438 149.03125 162.519531 149.070312 162.519531 149.105469 Z M 201.105469 176.1875 C 200.421875 176.1875 199.761719 176.003906 199.152344 175.628906 C 199.03125 175.554688 198.910156 175.472656 198.796875 175.386719 L 163.40625 153.832031 C 162.144531 153.066406 161.253906 151.871094 160.882812 150.480469 C 160.703125 149.785156 160.664062 149.3125 160.695312 148.988281 C 160.699219 145.796875 162.082031 143.59375 165.320312 141.617188 L 199.078125 121.046875 C 199.363281 120.875 199.707031 120.875 199.992188 121.046875 L 233.40625 141.410156 C 234.261719 141.929688 234.773438 142.867188 234.773438 143.90625 C 234.773438 144.949219 234.261719 145.886719 233.40625 146.40625 L 202.378906 165.3125 C 199.671875 166.964844 198.667969 168.511719 198.667969 171.023438 C 198.667969 172.164062 199.113281 173.214844 199.824219 173.789062 C 199.839844 173.800781 199.859375 173.816406 199.875 173.828125 C 199.9375 173.875 200 173.917969 200.066406 173.957031 C 200.789062 174.402344 201.652344 174.347656 202.550781 173.796875 L 233.933594 154.671875 L 231.386719 152.921875 C 230.964844 152.632812 230.84375 152.03125 231.117188 151.585938 C 231.394531 151.140625 231.960938 151.015625 232.382812 151.308594 L 236.175781 153.917969 C 236.445312 154.097656 236.601562 154.414062 236.59375 154.75 C 236.582031 155.082031 236.410156 155.390625 236.132812 155.558594 L 203.46875 175.46875 C 202.679688 175.945312 201.878906 176.1875 201.105469 176.1875 "/></g><g clip-rule="nonzero" clip-path="url(#clip2)"><path style=" stroke:none;fill-rule:nonzero;fill:rgb(18.818665%,27.059937%,26.269531%);fill-opacity:1;" d="M 216.378906 188.335938 C 216.0625 188.335938 215.753906 188.164062 215.585938 187.851562 C 215.332031 187.390625 215.484375 186.800781 215.917969 186.535156 L 233.933594 175.558594 L 231.386719 173.804688 C 230.964844 173.511719 230.84375 172.917969 231.117188 172.46875 C 231.394531 172.023438 231.960938 171.898438 232.382812 172.1875 L 236.175781 174.796875 C 236.445312 174.980469 236.601562 175.296875 236.59375 175.632812 C 236.582031 175.96875 236.410156 176.273438 236.132812 176.441406 L 216.832031 188.207031 C 216.6875 188.296875 216.53125 188.335938 216.378906 188.335938 "/></g><g clip-rule="nonzero" clip-path="url(#clip3)"><path style=" stroke:none;fill-rule:nonzero;fill:rgb(18.818665%,27.059937%,26.269531%);fill-opacity:1;" d="M 162.507812 170.054688 C 162.5 170.105469 162.488281 170.15625 162.46875 170.207031 C 162.488281 170.15625 162.5 170.105469 162.507812 170.054688 Z M 199.304688 196.429688 C 199.148438 196.429688 198.988281 196.386719 198.84375 196.300781 L 163.40625 174.714844 C 162.144531 173.945312 161.253906 172.757812 160.882812 171.363281 C 160.703125 170.667969 160.664062 170.199219 160.695312 169.875 C 160.699219 166.6875 162.074219 164.484375 165.300781 162.515625 L 166.835938 161.460938 C 167.261719 161.171875 167.828125 161.296875 168.101562 161.742188 C 168.375 162.191406 168.257812 162.789062 167.832031 163.082031 L 166.277344 164.148438 C 166.261719 164.15625 166.25 164.160156 166.234375 164.171875 C 163.53125 165.820312 162.523438 167.371094 162.523438 169.882812 C 162.523438 169.917969 162.519531 169.953125 162.519531 169.988281 C 162.519531 170.082031 162.53125 170.410156 162.644531 170.847656 C 162.882812 171.738281 163.488281 172.539062 164.324219 173.042969 L 199.761719 194.628906 C 200.199219 194.894531 200.347656 195.484375 200.09375 195.945312 C 199.925781 196.257812 199.617188 196.429688 199.304688 196.429688 "/></g><g clip-rule="nonzero" clip-path="url(#clip4)"><path style=" stroke:none;fill-rule:nonzero;fill:rgb(18.818665%,27.059937%,26.269531%);fill-opacity:1;" d="M 210.132812 199.589844 C 209.980469 199.589844 209.824219 199.546875 209.6875 199.460938 C 209.398438 199.292969 209.222656 198.972656 209.222656 198.625 L 209.222656 192.886719 L 203.460938 196.351562 C 201.988281 197.25 200.457031 197.308594 199.152344 196.511719 C 197.726562 195.644531 196.839844 193.878906 196.839844 191.910156 C 196.839844 188.710938 198.222656 186.503906 201.464844 184.527344 L 232.492188 165.617188 C 232.902344 165.371094 232.945312 164.957031 232.945312 164.792969 C 232.945312 164.621094 232.902344 164.210938 232.492188 163.960938 C 232.054688 163.695312 231.90625 163.105469 232.15625 162.644531 C 232.410156 162.183594 232.96875 162.027344 233.40625 162.289062 C 234.261719 162.8125 234.773438 163.746094 234.773438 164.792969 C 234.773438 165.832031 234.261719 166.769531 233.40625 167.289062 L 202.378906 186.199219 C 199.671875 187.847656 198.667969 189.394531 198.667969 191.910156 C 198.667969 193.171875 199.214844 194.324219 200.066406 194.84375 C 200.789062 195.285156 201.652344 195.230469 202.550781 194.679688 L 209.683594 190.390625 C 209.964844 190.21875 210.3125 190.222656 210.59375 190.394531 C 210.875 190.566406 211.050781 190.886719 211.050781 191.226562 L 211.050781 196.925781 L 215.460938 194.132812 L 215.460938 187.371094 C 215.460938 186.03125 214.777344 184.789062 213.675781 184.125 C 213.234375 183.859375 213.085938 183.269531 213.335938 182.808594 C 213.582031 182.34375 214.144531 182.1875 214.578125 182.449219 C 216.25 183.453125 217.289062 185.339844 217.289062 187.371094 L 217.289062 194.679688 C 217.289062 195.023438 217.121094 195.335938 216.84375 195.507812 L 210.605469 199.449219 C 210.460938 199.542969 210.296875 199.589844 210.132812 199.589844 "/></g><path style=" stroke:none;fill-rule:nonzero;fill:rgb(18.818665%,27.059937%,26.269531%);fill-opacity:1;" d="M 193.828125 159.84375 C 193.679688 159.84375 193.527344 159.804688 193.386719 159.722656 L 165.335938 143.296875 C 164.894531 143.039062 164.734375 142.449219 164.980469 141.988281 C 165.222656 141.519531 165.78125 141.351562 166.222656 141.609375 L 194.273438 158.035156 C 194.714844 158.292969 194.875 158.878906 194.628906 159.347656 C 194.460938 159.664062 194.148438 159.84375 193.828125 159.84375 "/><path style=" stroke:none;fill-rule:nonzero;fill:rgb(4.708862%,61.959839%,64.309692%);fill-opacity:1;" d="M 182.082031 136.972656 L 216.988281 136.972656 L 199.535156 126.335938 Z M 182.082031 136.972656 "/></g></svg>