<?xml version="1.0" encoding="UTF-8"?><svg xmlns="http://www.w3.org/2000/svg" xmlns:xlink="http://www.w3.org/1999/xlink" width="300pt" zoomAndPan="magnify" viewBox="0 0 300 74.999997" height="74.999997pt" preserveAspectRatio="xMidYMid meet" version="1.2"><defs><g/><clipPath xml:id="clip1" id="clip1"><path d="M 7.5 8.253906 L 58.5 8.253906 L 58.5 46 L 7.5 46 Z M 7.5 8.253906 "/></clipPath><clipPath xml:id="clip2" id="clip2"><path d="M 44 42 L 58.5 42 L 58.5 54 L 44 54 Z M 44 42 "/></clipPath><clipPath xml:id="clip3" id="clip3"><path d="M 7.5 35 L 35 35 L 35 59 L 7.5 59 Z M 7.5 35 "/></clipPath><clipPath xml:id="clip4" id="clip4"><path d="M 31 35 L 58 35 L 58 60.753906 L 31 60.753906 Z M 31 35 "/></clipPath></defs><g xml:id="surface1" id="surface1"><path style="fill:none;stroke-width:1;stroke-linecap:round;stroke-linejoin:miter;stroke:rgb(100%,100%,100%);stroke-opacity:1;stroke-miterlimit:4;" d="M 0.499588 -0.00000490466 L 93.571798 -0.00000490466 " transform="matrix(2.24838,0,0,2.25,81.079862,61.402355)"/><path style="fill:none;stroke-width:1;stroke-linecap:round;stroke-linejoin:miter;stroke:rgb(100%,100%,100%);stroke-opacity:1;stroke-miterlimit:4;" d="M 0.500282 0.0000007575 L 93.574172 0.0000007575 " transform="matrix(2.248256,0,0,2.25,81.074457,8.624998)"/><g style="fill:rgb(100%,100%,100%);fill-opacity:1;"><g transform="translate(80.738434, 45.559586)"><path style="stroke:none;" d="M 11.167969 -5.726562 C 11.167969 -4.433594 10.074219 -3.367188 8.777344 -3.367188 L 6.042969 -3.367188 L 6.042969 -8.085938 L 8.777344 -8.085938 C 10.074219 -8.085938 11.167969 -6.992188 11.167969 -5.726562 Z M 9.816406 -13.902344 C 9.816406 -12.664062 8.777344 -11.628906 7.539062 -11.628906 L 6.042969 -11.628906 L 6.042969 -16.175781 L 7.539062 -16.175781 C 8.777344 -16.175781 9.816406 -15.167969 9.816406 -13.902344 Z M 15.570312 -5.613281 C 15.570312 -8.261719 13.785156 -10.015625 11.597656 -10.535156 C 13.066406 -11.195312 13.929688 -12.691406 13.929688 -14.679688 C 13.929688 -17.355469 11.800781 -19.570312 8.460938 -19.570312 L 1.726562 -19.570312 L 1.726562 0 L 9.640625 0 C 13.382812 0 15.570312 -2.246094 15.570312 -5.613281 Z M 15.570312 -5.613281 "/></g></g><g style="fill:rgb(100%,100%,100%);fill-opacity:1;"><g transform="translate(102.353181, 45.559586)"><path style="stroke:none;" d="M 16.835938 -9.816406 C 16.835938 -6.792969 14.101562 -4.03125 11.082031 -4.03125 C 8.058594 -4.03125 5.324219 -6.792969 5.324219 -9.816406 C 5.324219 -12.835938 8.058594 -15.570312 11.082031 -15.570312 C 14.101562 -15.570312 16.835938 -12.835938 16.835938 -9.816406 Z M 21.15625 -9.785156 C 21.15625 -15.195312 16.492188 -19.859375 11.082031 -19.859375 C 5.671875 -19.859375 1.007812 -15.195312 1.007812 -9.785156 C 1.007812 -4.375 5.671875 0.289062 11.082031 0.289062 C 16.492188 0.289062 21.15625 -4.375 21.15625 -9.785156 Z M 21.15625 -9.785156 "/></g></g><g style="fill:rgb(100%,100%,100%);fill-opacity:1;"><g transform="translate(130.27065, 45.559586)"><path style="stroke:none;" d="M 16.835938 -9.816406 C 16.835938 -6.792969 14.101562 -4.03125 11.082031 -4.03125 C 8.058594 -4.03125 5.324219 -6.792969 5.324219 -9.816406 C 5.324219 -12.835938 8.058594 -15.570312 11.082031 -15.570312 C 14.101562 -15.570312 16.835938 -12.835938 16.835938 -9.816406 Z M 21.15625 -9.785156 C 21.15625 -15.195312 16.492188 -19.859375 11.082031 -19.859375 C 5.671875 -19.859375 1.007812 -15.195312 1.007812 -9.785156 C 1.007812 -4.375 5.671875 0.289062 11.082031 0.289062 C 16.492188 0.289062 21.15625 -4.375 21.15625 -9.785156 Z M 21.15625 -9.785156 "/></g></g><g style="fill:rgb(100%,100%,100%);fill-opacity:1;"><g transform="translate(158.188119, 45.559586)"><path style="stroke:none;" d="M 6.042969 -8.75 L 12.234375 0 L 18.046875 0 L 10.246094 -9.785156 L 17.757812 -19.570312 L 12.234375 -19.570312 L 6.042969 -10.820312 L 6.042969 -19.570312 L 1.726562 -19.570312 L 1.726562 0 L 6.042969 0 Z M 6.042969 -8.75 "/></g></g><g style="fill:rgb(100%,100%,100%);fill-opacity:1;"><g transform="translate(181.702316, 45.559586)"><path style="stroke:none;" d="M 9.324219 -3.050781 C 7.195312 -3.050781 5.355469 -4.117188 5.238281 -6.445312 L 0.863281 -6.445312 C 0.890625 -1.667969 4.835938 0.460938 9.152344 0.460938 C 13.152344 0.460938 17.269531 -1.238281 17.269531 -5.84375 C 17.269531 -13.296875 5.957031 -10.792969 5.957031 -14.277344 C 5.957031 -15.742188 7.65625 -16.320312 8.863281 -16.320312 C 11.023438 -16.320312 12.203125 -15.65625 12.433594 -13.613281 L 16.609375 -13.613281 C 16.464844 -18.074219 12.835938 -19.859375 8.808594 -19.859375 C 5.238281 -19.859375 1.496094 -17.960938 1.496094 -13.929688 C 1.496094 -6.707031 12.808594 -9.152344 12.808594 -5.355469 C 12.808594 -3.597656 10.679688 -3.050781 9.324219 -3.050781 Z M 9.324219 -3.050781 "/></g></g><g style="fill:rgb(100%,100%,100%);fill-opacity:1;"><g transform="translate(205.59065, 45.559586)"><path style="stroke:none;" d="M 10.046875 -15.65625 L 15.628906 -15.65625 L 15.628906 -19.570312 L 0.144531 -19.570312 L 0.144531 -15.65625 L 5.726562 -15.65625 L 5.726562 0 L 10.046875 0 Z M 10.046875 -15.65625 "/></g></g><g style="fill:rgb(100%,100%,100%);fill-opacity:1;"><g transform="translate(227.119063, 45.559586)"><path style="stroke:none;" d="M 16.835938 -9.816406 C 16.835938 -6.792969 14.101562 -4.03125 11.082031 -4.03125 C 8.058594 -4.03125 5.324219 -6.792969 5.324219 -9.816406 C 5.324219 -12.835938 8.058594 -15.570312 11.082031 -15.570312 C 14.101562 -15.570312 16.835938 -12.835938 16.835938 -9.816406 Z M 21.15625 -9.785156 C 21.15625 -15.195312 16.492188 -19.859375 11.082031 -19.859375 C 5.671875 -19.859375 1.007812 -15.195312 1.007812 -9.785156 C 1.007812 -4.375 5.671875 0.289062 11.082031 0.289062 C 16.492188 0.289062 21.15625 -4.375 21.15625 -9.785156 Z M 21.15625 -9.785156 "/></g></g><g style="fill:rgb(100%,100%,100%);fill-opacity:1;"><g transform="translate(255.03654, 45.559586)"><path style="stroke:none;" d="M 6.042969 -6.992188 L 6.074219 -6.992188 L 10.734375 0 L 16.203125 0 L 10.59375 -7.195312 C 13.066406 -7.800781 15.054688 -9.988281 15.054688 -13.296875 C 15.054688 -17.011719 12.234375 -19.570312 9.066406 -19.570312 L 1.726562 -19.570312 L 1.726562 0 L 6.042969 0 Z M 8.347656 -16.175781 C 9.613281 -16.175781 10.9375 -15.082031 10.9375 -13.296875 C 10.9375 -11.425781 9.613281 -10.390625 8.347656 -10.390625 L 6.042969 -10.390625 L 6.042969 -16.175781 Z M 8.347656 -16.175781 "/></g></g><g style="fill:rgb(100%,100%,100%);fill-opacity:1;"><g transform="translate(276.651286, 45.559586)"><path style="stroke:none;" d="M 13.066406 -3.914062 L 6.042969 -3.914062 L 6.042969 -7.859375 L 12.78125 -7.859375 L 12.78125 -11.773438 L 6.042969 -11.773438 L 6.042969 -15.65625 L 13.066406 -15.65625 L 13.066406 -19.570312 L 1.726562 -19.570312 L 1.726562 0 L 13.066406 0 Z M 13.066406 -3.914062 "/></g></g><g clip-rule="nonzero" clip-path="url(#clip1)"><path style=" stroke:none;fill-rule:nonzero;fill:rgb(99.609375%,96.859741%,100%);fill-opacity:1;" d="M 8.941406 27.140625 C 8.933594 27.175781 8.925781 27.210938 8.914062 27.246094 C 8.925781 27.210938 8.933594 27.175781 8.941406 27.140625 Z M 8.949219 27.097656 C 8.949219 27.160156 8.957031 27.378906 9.03125 27.671875 C 9.1875 28.261719 9.59375 28.796875 10.148438 29.136719 L 31.875 42.371094 C 31.84375 42.15625 31.824219 41.9375 31.824219 41.710938 C 31.824219 39.582031 32.746094 38.109375 34.910156 36.789062 L 55.59375 24.1875 C 55.867188 24.019531 55.894531 23.742188 55.894531 23.632812 C 55.894531 23.523438 55.867188 23.25 55.59375 23.082031 L 33.625 9.691406 L 11.425781 23.222656 C 9.621094 24.320312 8.953125 25.351562 8.953125 27.027344 C 8.953125 27.050781 8.949219 27.074219 8.949219 27.097656 Z M 34.667969 45.152344 C 34.214844 45.152344 33.773438 45.03125 33.367188 44.78125 C 33.285156 44.730469 33.207031 44.679688 33.128906 44.617188 L 9.539062 30.25 C 8.699219 29.738281 8.101562 28.945312 7.859375 28.015625 C 7.738281 27.550781 7.710938 27.238281 7.734375 27.023438 C 7.734375 24.894531 8.65625 23.425781 10.816406 22.105469 L 33.320312 8.394531 C 33.507812 8.277344 33.738281 8.277344 33.929688 8.394531 L 56.203125 21.96875 C 56.773438 22.316406 57.113281 22.9375 57.113281 23.632812 C 57.113281 24.328125 56.773438 24.953125 56.203125 25.300781 L 35.519531 37.90625 C 33.714844 39.003906 33.042969 40.035156 33.042969 41.710938 C 33.042969 42.472656 33.339844 43.171875 33.816406 43.554688 C 33.828125 43.5625 33.839844 43.570312 33.851562 43.582031 C 33.890625 43.613281 33.933594 43.640625 33.976562 43.667969 C 34.460938 43.960938 35.035156 43.925781 35.632812 43.558594 L 56.554688 30.808594 L 54.855469 29.640625 C 54.574219 29.449219 54.496094 29.050781 54.675781 28.753906 C 54.859375 28.457031 55.238281 28.371094 55.519531 28.566406 L 58.050781 30.304688 C 58.226562 30.425781 58.332031 30.636719 58.324219 30.859375 C 58.320312 31.085938 58.203125 31.289062 58.019531 31.398438 L 36.246094 44.671875 C 35.71875 44.992188 35.1875 45.152344 34.667969 45.152344 "/></g><g clip-rule="nonzero" clip-path="url(#clip2)"><path style=" stroke:none;fill-rule:nonzero;fill:rgb(99.609375%,96.859741%,100%);fill-opacity:1;" d="M 44.851562 53.25 C 44.640625 53.25 44.433594 53.136719 44.320312 52.929688 C 44.152344 52.621094 44.253906 52.230469 44.546875 52.050781 L 56.554688 44.734375 L 54.855469 43.566406 C 54.574219 43.371094 54.496094 42.972656 54.675781 42.675781 C 54.859375 42.378906 55.238281 42.292969 55.519531 42.488281 L 58.050781 44.226562 C 58.226562 44.351562 58.332031 44.5625 58.324219 44.785156 C 58.320312 45.007812 58.203125 45.210938 58.019531 45.324219 L 45.152344 53.164062 C 45.058594 53.226562 44.953125 53.25 44.851562 53.25 "/></g><g clip-rule="nonzero" clip-path="url(#clip3)"><path style=" stroke:none;fill-rule:nonzero;fill:rgb(99.609375%,96.859741%,100%);fill-opacity:1;" d="M 8.941406 41.0625 C 8.933594 41.097656 8.925781 41.132812 8.914062 41.167969 C 8.925781 41.132812 8.933594 41.097656 8.941406 41.0625 Z M 33.46875 58.648438 C 33.363281 58.648438 33.261719 58.621094 33.164062 58.5625 L 9.539062 44.171875 C 8.699219 43.660156 8.101562 42.867188 7.859375 41.9375 C 7.738281 41.472656 7.710938 41.160156 7.734375 40.945312 C 7.734375 38.820312 8.652344 37.351562 10.800781 36.039062 L 11.828125 35.335938 C 12.109375 35.144531 12.484375 35.226562 12.671875 35.523438 C 12.851562 35.824219 12.773438 36.21875 12.488281 36.414062 L 11.453125 37.125 C 11.441406 37.132812 11.433594 37.136719 11.425781 37.144531 C 9.621094 38.242188 8.953125 39.273438 8.953125 40.949219 C 8.953125 40.972656 8.949219 40.996094 8.949219 41.019531 C 8.949219 41.082031 8.957031 41.300781 9.03125 41.59375 C 9.1875 42.1875 9.59375 42.722656 10.148438 43.058594 L 33.773438 57.449219 C 34.066406 57.625 34.164062 58.019531 33.996094 58.328125 C 33.882812 58.535156 33.679688 58.648438 33.46875 58.648438 "/></g><g clip-rule="nonzero" clip-path="url(#clip4)"><path style=" stroke:none;fill-rule:nonzero;fill:rgb(99.609375%,96.859741%,100%);fill-opacity:1;" d="M 40.6875 60.753906 C 40.585938 60.753906 40.480469 60.726562 40.390625 60.671875 C 40.199219 60.558594 40.082031 60.34375 40.082031 60.109375 L 40.082031 56.285156 L 36.242188 58.597656 C 35.257812 59.195312 34.238281 59.234375 33.367188 58.703125 C 32.417969 58.125 31.824219 56.949219 31.824219 55.632812 C 31.824219 53.5 32.746094 52.03125 34.910156 50.714844 L 55.59375 38.109375 C 55.867188 37.941406 55.894531 37.667969 55.894531 37.554688 C 55.894531 37.445312 55.867188 37.167969 55.59375 37.003906 C 55.300781 36.824219 55.203125 36.433594 55.371094 36.125 C 55.539062 35.816406 55.910156 35.710938 56.203125 35.890625 C 56.773438 36.238281 57.113281 36.859375 57.113281 37.554688 C 57.113281 38.25 56.773438 38.875 56.203125 39.222656 L 35.519531 51.828125 C 33.714844 52.925781 33.042969 53.957031 33.042969 55.632812 C 33.042969 56.476562 33.410156 57.246094 33.976562 57.589844 C 34.460938 57.886719 35.035156 57.847656 35.632812 57.484375 L 40.386719 54.621094 C 40.578125 54.507812 40.808594 54.507812 40.996094 54.625 C 41.183594 54.738281 41.300781 54.953125 41.300781 55.179688 L 41.300781 58.976562 L 44.238281 57.117188 L 44.238281 52.609375 C 44.238281 51.71875 43.78125 50.886719 43.050781 50.445312 C 42.757812 50.269531 42.65625 49.875 42.820312 49.566406 C 42.988281 49.257812 43.359375 49.152344 43.652344 49.328125 C 44.765625 50 45.457031 51.257812 45.457031 52.609375 L 45.457031 57.484375 C 45.457031 57.710938 45.347656 57.917969 45.160156 58.035156 L 41.003906 60.660156 C 40.90625 60.722656 40.796875 60.753906 40.6875 60.753906 "/></g><path style=" stroke:none;fill-rule:nonzero;fill:rgb(99.609375%,96.859741%,100%);fill-opacity:1;" d="M 29.820312 34.257812 C 29.71875 34.257812 29.617188 34.230469 29.523438 34.175781 L 10.828125 23.226562 C 10.53125 23.054688 10.425781 22.664062 10.589844 22.351562 C 10.75 22.042969 11.121094 21.929688 11.417969 22.101562 L 30.113281 33.050781 C 30.410156 33.222656 30.515625 33.613281 30.351562 33.925781 C 30.242188 34.136719 30.03125 34.257812 29.820312 34.257812 "/><path style=" stroke:none;fill-rule:nonzero;fill:rgb(96.859741%,100%,97.24884%);fill-opacity:1;" d="M 21.988281 19.007812 L 45.257812 19.007812 L 33.625 11.917969 Z M 21.988281 19.007812 "/></g></svg>